<svg width="198" height="44" viewBox="0 0 198 44" fill="none" xmlns="http://www.w3.org/2000/svg">
<g clipPath="url(#clip0_10002_8285)">
<g clipPath="url(#clip1_10002_8285)">
<path d="M18.5864 0.0847817C35.3077 -1.39629 46.3161 16.8356 36.4232 30.6601C27.2853 43.4302 6.80524 40.1149 2.38976 24.9348C-0.901321 13.6242 6.66424 1.14089 18.5864 0.0847817ZM12.4415 32.6808C19.759 29.5412 29.2396 26.2258 32.1969 18.0172C33.0054 15.7741 33.3962 13.3014 33.4266 10.9238L31.2902 15.1806C27.3388 22.2649 18.2758 24.9348 13.5409 30.9631C13.3892 31.1549 12.3255 32.5625 12.4415 32.6808Z" fill="#BE735B"/>
</g>
</g>
<path d="M64.2264 35.07C61.503 35.07 59.1914 34.4683 57.2914 33.265C55.3914 32.0617 53.941 30.3897 52.9404 28.249C51.9524 26.1083 51.4584 23.632 51.4584 20.82C51.4584 18.008 51.9524 15.5317 52.9404 13.391C53.941 11.2503 55.3914 9.57833 57.2914 8.375C59.1914 7.17167 61.503 6.57 64.2264 6.57C66.9624 6.57 69.2804 7.17167 71.1804 8.375C73.0804 9.57833 74.5244 11.2503 75.5124 13.391C76.5004 15.5317 76.9944 18.008 76.9944 20.82C76.9944 23.632 76.5004 26.1083 75.5124 28.249C74.5244 30.3897 73.0804 32.0617 71.1804 33.265C69.2804 34.4683 66.9624 35.07 64.2264 35.07ZM64.2264 31.84C66.2657 31.8527 67.963 31.3967 69.3184 30.472C70.6864 29.5347 71.706 28.2363 72.3774 26.577C73.0614 24.9177 73.4034 22.9987 73.4034 20.82C73.4034 18.6287 73.0614 16.7097 72.3774 15.063C71.706 13.4163 70.6864 12.1307 69.3184 11.206C67.963 10.2813 66.2657 9.81267 64.2264 9.8C62.187 9.78733 60.4897 10.2433 59.1344 11.168C57.7917 12.0927 56.7784 13.3847 56.0944 15.044C55.4104 16.7033 55.062 18.6287 55.0494 20.82C55.0367 22.9987 55.3724 24.9113 56.0564 26.558C56.7404 28.2047 57.76 29.4967 59.1154 30.434C60.4834 31.3587 62.187 31.8273 64.2264 31.84ZM80.8104 34.5V6.57H84.1924V34.5H80.8104ZM92.3633 43.62L96.3343 32.828L96.3913 36.02L87.4233 13.98H90.9763L98.0063 31.707H96.7903L103.383 13.98H106.822L95.6503 43.62H92.3633ZM109.581 34.5V13.98H112.602V18.939L112.108 18.293C112.348 17.6597 112.659 17.077 113.039 16.545C113.431 16.013 113.868 15.576 114.35 15.234C114.882 14.8033 115.483 14.474 116.155 14.246C116.826 14.018 117.51 13.885 118.207 13.847C118.903 13.7963 119.556 13.8407 120.164 13.98V17.153C119.454 16.963 118.675 16.9123 117.827 17.001C116.978 17.0897 116.193 17.4 115.471 17.932C114.812 18.4007 114.299 18.9707 113.932 19.642C113.577 20.3133 113.33 21.0417 113.191 21.827C113.051 22.5997 112.982 23.3913 112.982 24.202V34.5H109.581ZM128.541 35.07C127.009 35.07 125.723 34.7913 124.684 34.234C123.658 33.664 122.879 32.9167 122.347 31.992C121.828 31.0673 121.568 30.054 121.568 28.952C121.568 27.8753 121.771 26.9443 122.176 26.159C122.594 25.361 123.177 24.7023 123.924 24.183C124.672 23.651 125.565 23.233 126.603 22.929C127.579 22.663 128.668 22.435 129.871 22.245C131.087 22.0423 132.316 21.8587 133.557 21.694C134.799 21.5293 135.958 21.371 137.034 21.219L135.818 21.922C135.856 20.098 135.489 18.749 134.716 17.875C133.956 17.001 132.639 16.564 130.764 16.564C129.523 16.564 128.434 16.849 127.496 17.419C126.572 17.9763 125.919 18.8883 125.539 20.155L122.328 19.186C122.822 17.3873 123.779 15.975 125.197 14.949C126.616 13.923 128.484 13.41 130.802 13.41C132.664 13.41 134.26 13.7457 135.59 14.417C136.933 15.0757 137.896 16.0763 138.478 17.419C138.77 18.0523 138.953 18.7427 139.029 19.49C139.105 20.2247 139.143 20.9973 139.143 21.808V34.5H136.141V29.579L136.844 30.035C136.072 31.6943 134.989 32.9483 133.595 33.797C132.215 34.6457 130.53 35.07 128.541 35.07ZM129.054 32.239C130.27 32.239 131.322 32.0237 132.208 31.593C133.108 31.1497 133.83 30.5733 134.374 29.864C134.919 29.142 135.274 28.3567 135.438 27.508C135.628 26.8747 135.73 26.1717 135.742 25.399C135.768 24.6137 135.78 24.012 135.78 23.594L136.958 24.107C135.856 24.259 134.773 24.4047 133.709 24.544C132.645 24.6833 131.638 24.8353 130.688 25C129.738 25.152 128.883 25.3357 128.123 25.551C127.566 25.7283 127.04 25.9563 126.546 26.235C126.065 26.5137 125.672 26.8747 125.368 27.318C125.077 27.7487 124.931 28.287 124.931 28.933C124.931 29.4903 125.071 30.0223 125.349 30.529C125.641 31.0357 126.084 31.4473 126.679 31.764C127.287 32.0807 128.079 32.239 129.054 32.239Z" fill="#BE735B"/>
<defs>
<clipPath id="clip0_10002_8285">
<rect width="39" height="39" fill="white" transform="translate(1.61719)"/>
</clipPath>
<clipPath id="clip1_10002_8285">
<rect width="39" height="39" fill="white" transform="translate(1.61719)"/>
</clipPath>
</defs>
</svg>
